<svg width="792" height="465" viewBox="0 0 792 465" fill="none" xmlns="http://www.w3.org/2000/svg">
<path d="M713.975 0H78.1096C71.6369 0 66.3897 5.22476 66.3897 11.6698V444.415C66.3897 450.86 71.6369 456.084 78.1096 456.084H713.975C720.448 456.084 725.695 450.86 725.695 444.415V11.6698C725.695 5.22476 720.448 0 713.975 0Z" fill="url(#paint0_radial_21_41)"/>
<path d="M711.189 5.05426H80.8956C75.6876 5.05426 71.4656 9.25814 71.4656 14.4439V441.639C71.4656 446.825 75.6876 451.029 80.8956 451.029H711.189C716.397 451.029 720.619 446.825 720.619 441.639V14.4439C720.619 9.25814 716.397 5.05426 711.189 5.05426Z" fill="#231F20"/>
<path d="M699.716 5.05426H92.3465C86.8033 5.06296 81.4898 7.26061 77.5717 11.1651C73.6536 15.0696 71.4509 20.3622 71.4466 25.8817V430.202C71.4509 435.721 73.6536 441.014 77.5717 444.918C81.4898 448.823 86.8033 451.02 92.3465 451.029H699.716C705.26 451.02 710.573 448.823 714.491 444.918C718.409 441.014 720.612 435.721 720.616 430.202V25.8817C720.612 20.3622 718.409 15.0696 714.491 11.1651C710.573 7.26061 705.26 5.06296 699.716 5.05426ZM718.07 430.202C718.071 432.602 717.597 434.98 716.675 437.198C715.753 439.416 714.401 441.432 712.697 443.13C710.993 444.828 708.969 446.176 706.742 447.095C704.515 448.015 702.127 448.488 699.716 448.489H92.3465C87.479 448.482 82.8131 446.552 79.3723 443.124C75.9315 439.695 73.9969 435.048 73.9926 430.202V25.8817C73.9969 21.035 75.9315 16.3878 79.3723 12.9595C82.8131 9.53117 87.479 7.60172 92.3465 7.59434H699.716C702.127 7.59512 704.515 8.06876 706.742 8.98822C708.969 9.90767 710.993 11.2549 712.697 12.9531C714.401 14.6512 715.753 16.667 716.675 18.8853C717.597 21.1036 718.071 23.481 718.07 25.8817V430.202Z" fill="#494143"/>
<path d="M701.511 33.9022H89.6865V412.381H701.511V33.9022Z" fill="url(#paint1_radial_21_41)"/>
<path opacity="0.2" d="M460.493 5.05426H92.3685C86.8253 5.06296 81.5118 7.26061 77.5937 11.1651C73.6756 15.0696 71.4729 20.3622 71.4686 25.8817V430.202C71.4729 435.721 73.6756 441.014 77.5937 444.918C81.5118 448.823 86.8253 451.02 92.3685 451.029H327.757L460.493 5.05426Z" fill="url(#paint2_radial_21_41)"/>
<path d="M396.785 440.92H0V454.605C4.62602 457.784 9.63103 460.379 14.8999 462.329C22.4999 465.11 26.8699 464.78 35.5368 465H756.44C765.107 464.779 769.474 465.11 777.1 462.329C782.366 460.373 787.371 457.779 792 454.605V440.92H396.785Z" fill="url(#paint3_linear_21_41)"/>
<path d="M449.786 440.92H342.186C342.186 440.92 340.386 451.029 361.294 451.029H430.676C451.582 451.029 449.786 440.92 449.786 440.92Z" fill="url(#paint4_linear_21_41)"/>
<path d="M702.029 37.5739H90.0085V416.818H702.029V37.5739Z" fill="#EBEBEB"/>
<path d="M226.067 37.2112H89.9425V417.105H226.067V37.2112Z" fill="#C5C6CB"/>
<path d="M226.067 37.2112H89.9425V74.1773H226.067V37.2112Z" fill="#029FA0"/>
<path d="M216.992 87.3208H99.0175V92.2513H216.992V87.3208Z" fill="white"/>
<path d="M216.992 200.683H99.0175V205.614H216.992V200.683Z" fill="white"/>
<path d="M193.067 144.002H99.0175V148.933H193.067V144.002Z" fill="white"/>
<path d="M216.992 116.072H99.0175V120.181H216.992V116.072Z" fill="white"/>
<path d="M186.467 172.754H99.0175V176.862H186.467V172.754Z" fill="white"/>
<path d="M198.017 101.286H99.0175V106.216H198.017V101.286Z" fill="white"/>
<path d="M210.392 157.967H99.0175V162.898H210.392V157.967Z" fill="white"/>
<path d="M207.092 130.037H99.0175V134.968H207.092V130.037Z" fill="white"/>
<path d="M198.017 186.719H99.0175V191.649H198.017V186.719Z" fill="white"/>
<path d="M99.0175 225.456H178.654V230.386H99.0175V225.456Z" fill="white"/>
<path d="M210.392 254.207H99.0175V258.316H210.392V254.207Z" fill="white"/>
<path d="M198.017 239.421H99.0175V244.351H198.017V239.421Z" fill="white"/>
<path d="M207.092 268.172H99.0175V273.103H207.092V268.172Z" fill="white"/>
<path d="M217.017 50.4791H127.017V58.4449H217.017V50.4791Z" fill="white"/>
<path d="M530.615 192.844H243.267C241.058 192.844 239.267 194.627 239.267 196.827V399.979C239.267 402.178 241.058 403.962 243.267 403.962H530.615C532.824 403.962 534.615 402.178 534.615 399.979V196.827C534.615 194.627 532.824 192.844 530.615 192.844Z" fill="white"/>
<path d="M507.802 221.596H478.929C475.511 221.596 472.741 224.354 472.741 227.757C472.741 231.159 475.511 233.918 478.929 233.918H507.802C511.22 233.918 513.99 231.159 513.99 227.757C513.99 224.354 511.22 221.596 507.802 221.596Z" fill="#00D3D4"/>
<path d="M507.802 259.383H478.929C475.511 259.383 472.741 262.142 472.741 265.544C472.741 268.947 475.511 271.705 478.929 271.705H507.802C511.22 271.705 513.99 268.947 513.99 265.544C513.99 262.142 511.22 259.383 507.802 259.383Z" fill="#00D3D4"/>
<path d="M507.802 297.992H478.929C475.511 297.992 472.741 300.751 472.741 304.153C472.741 307.556 475.511 310.314 478.929 310.314H507.802C511.22 310.314 513.99 307.556 513.99 304.153C513.99 300.751 511.22 297.992 507.802 297.992Z" fill="#00D3D4"/>
<path d="M507.802 335.78H478.929C475.511 335.78 472.741 338.538 472.741 341.941C472.741 345.344 475.511 348.102 478.929 348.102H507.802C511.22 348.102 513.99 345.344 513.99 341.941C513.99 338.538 511.22 335.78 507.802 335.78Z" fill="#00D3D4"/>
<path d="M507.802 375.21H478.929C475.511 375.21 472.741 377.969 472.741 381.371C472.741 384.774 475.511 387.532 478.929 387.532H507.802C511.22 387.532 513.99 384.774 513.99 381.371C513.99 377.969 511.22 375.21 507.802 375.21Z" fill="#00D3D4"/>
<path d="M366.316 224.881H306.091V227.347H366.316V224.881Z" fill="#C5C6CB"/>
<path d="M356.416 228.989H306.091V231.454H356.416V228.989Z" fill="#C5C6CB"/>
<path d="M435.616 224.881H396.016V227.347H435.616V224.881Z" fill="#C5C6CB"/>
<path d="M366.316 262.669H306.091V265.134H366.316V262.669Z" fill="#C5C6CB"/>
<path d="M356.416 266.776H306.091V269.242H356.416V266.776Z" fill="#C5C6CB"/>
<path d="M435.616 262.669H396.016V265.134H435.616V262.669Z" fill="#C5C6CB"/>
<path d="M366.316 301.278H306.091V303.743H366.316V301.278Z" fill="#C5C6CB"/>
<path d="M356.416 305.385H306.091V307.851H356.416V305.385Z" fill="#C5C6CB"/>
<path d="M435.616 301.278H396.016V303.743H435.616V301.278Z" fill="#C5C6CB"/>
<path d="M366.316 339.066H306.091V341.531H366.316V339.066Z" fill="#C5C6CB"/>
<path d="M356.416 343.173H306.091V345.638H356.416V343.173Z" fill="#C5C6CB"/>
<path d="M435.616 339.066H396.016V341.531H435.616V339.066Z" fill="#C5C6CB"/>
<path d="M366.316 377.675H306.091V380.14H366.316V377.675Z" fill="#C5C6CB"/>
<path d="M356.416 381.782H306.091V384.247H356.416V381.782Z" fill="#C5C6CB"/>
<path d="M435.616 377.675H396.016V380.14H435.616V377.675Z" fill="#C5C6CB"/>
<path d="M278.042 250.347H245.867V282.384H278.042V250.347Z" fill="#C5C6CB"/>
<path d="M278.042 288.956H245.867V320.993H278.042V288.956Z" fill="#C5C6CB"/>
<path d="M278.042 326.744H245.867V358.781H278.042V326.744Z" fill="#C5C6CB"/>
<path d="M278.042 365.353H245.867V397.39H278.042V365.353Z" fill="#C5C6CB"/>
<path d="M278.042 212.56H245.867V244.597H278.042V212.56Z" fill="#C5C6CB"/>
<path d="M243.267 192.844H530.615C531.676 192.844 532.694 193.264 533.444 194.011C534.194 194.758 534.615 195.771 534.615 196.827V205.988H239.267V196.827C239.267 195.771 239.688 194.758 240.438 194.011C241.188 193.264 242.206 192.844 243.267 192.844V192.844Z" fill="#383A4A"/>
<path d="M682.89 87.3208H552.99C549.677 87.3208 546.99 89.9956 546.99 93.2951V156.1C546.99 159.4 549.677 162.074 552.99 162.074H682.89C686.203 162.074 688.89 159.4 688.89 156.1V93.2951C688.89 89.9956 686.203 87.3208 682.89 87.3208Z" fill="white"/>
<path d="M626.19 95.5355H551.94V100.466H626.19V95.5355Z" fill="#ACACAC"/>
<path d="M528.615 87.3208H399.541C396.227 87.3208 393.541 89.9956 393.541 93.2951V156.1C393.541 159.4 396.227 162.074 399.541 162.074H528.615C531.929 162.074 534.615 159.4 534.615 156.1V93.2951C534.615 89.9956 531.929 87.3208 528.615 87.3208Z" fill="white"/>
<path d="M472.741 95.5355H398.491V100.466H472.741V95.5355Z" fill="#ACACAC"/>
<path d="M375.166 87.3208H245.267C241.953 87.3208 239.267 89.9956 239.267 93.2951V156.1C239.267 159.4 241.953 162.074 245.267 162.074H375.166C378.48 162.074 381.166 159.4 381.166 156.1V93.2951C381.166 89.9956 378.48 87.3208 375.166 87.3208Z" fill="white"/>
<path d="M318.466 95.5355H244.217V100.466H318.466V95.5355Z" fill="#ACACAC"/>
<path d="M682.89 307.028H552.99C549.677 307.028 546.99 309.703 546.99 313.003V397.987C546.99 401.287 549.677 403.962 552.99 403.962H682.89C686.203 403.962 688.89 401.287 688.89 397.987V313.003C688.89 309.703 686.203 307.028 682.89 307.028Z" fill="white"/>
<path d="M702.089 37.2112H226.067V74.1773H702.089V37.2112Z" fill="#C5C6CB"/>
<path d="M110.017 66.2116C116.093 66.2116 121.017 61.3078 121.017 55.2586C121.017 49.2095 116.093 44.3057 110.017 44.3057C103.942 44.3057 99.0175 49.2095 99.0175 55.2586C99.0175 61.3078 103.942 66.2116 110.017 66.2116Z" fill="white"/>
<path d="M552.265 106.414H626.515V108.406H552.265V106.414Z" fill="#ACACAC"/>
<path d="M398.266 106.414H472.516V108.406H398.266V106.414Z" fill="#ACACAC"/>
<path d="M552.265 118.362H626.515V120.354H552.265V118.362Z" fill="#ACACAC"/>
<path d="M244.267 104.422H318.516V106.414H244.267V104.422Z" fill="#ACACAC"/>
<path d="M552.265 110.397H626.515V112.389H552.265V110.397Z" fill="#ACACAC"/>
<path d="M552.265 110.397H626.515V112.389H552.265V110.397Z" fill="#ACACAC"/>
<path d="M398.266 110.397H472.516V112.389H398.266V110.397Z" fill="#ACACAC"/>
<path d="M552.265 122.345H626.515V124.337H552.265V122.345Z" fill="#ACACAC"/>
<path d="M244.267 108.405H318.516V110.397H244.267V108.405Z" fill="#ACACAC"/>
<path d="M552.265 114.379H626.515V116.372H552.265V114.379Z" fill="#ACACAC"/>
<path d="M398.266 114.379H472.516V116.372H398.266V114.379Z" fill="#ACACAC"/>
<path d="M398.266 118.362H472.516V120.354H398.266V118.362Z" fill="#ACACAC"/>
<path d="M552.265 126.328H626.515V128.32H552.265V126.328Z" fill="#ACACAC"/>
<path d="M244.267 112.388H318.516V114.38H244.267V112.388Z" fill="#ACACAC"/>
<path d="M619.215 47.741H244.217V62.6768H619.215V47.741Z" fill="white"/>
<path d="M618.715 48.239H244.717V62.1791H618.715V48.239Z" stroke="#C5C6CB"/>
<path d="M679.801 47.3446H638.928C634.406 47.3446 630.74 50.9946 630.74 55.4971C630.74 59.9995 634.406 63.6495 638.928 63.6495H679.801C684.324 63.6495 687.989 59.9995 687.989 55.4971C687.989 50.9946 684.324 47.3446 679.801 47.3446Z" fill="white"/>
<path d="M682.89 185.556H552.99C549.677 185.556 546.99 188.231 546.99 191.531V284.73C546.99 288.03 549.677 290.704 552.99 290.704H682.89C686.203 290.704 688.89 288.03 688.89 284.73V191.531C688.89 188.231 686.203 185.556 682.89 185.556Z" fill="white"/>
<path d="M567.615 232.38H559.365V287.419H567.615V232.38Z" fill="#92A1FF"/>
<path d="M591.54 248.81H583.29V287.419H591.54V248.81Z" fill="#92A1FF"/>
<path d="M615.465 239.773H607.215V287.419H615.465V239.773Z" fill="#92A1FF"/>
<path d="M639.39 252.095H631.14V287.419H639.39V252.095Z" fill="#92A1FF"/>
<path d="M663.315 239.773H655.065V287.419H663.315V239.773Z" fill="#92A1FF"/>
<path d="M575.865 213.486H567.615V287.419H575.865V213.486Z" fill="#5168FF"/>
<path d="M599.79 221.701H591.54V287.419H599.79V221.701Z" fill="#5168FF"/>
<path d="M623.715 218.415H615.465V287.419H623.715V218.415Z" fill="#5168FF"/>
<path d="M647.64 211.022H639.39V287.419H647.64V211.022Z" fill="#5168FF"/>
<path d="M671.565 203.629H663.315V287.419H671.565V203.629Z" fill="#5168FF"/>
<path d="M551.939 192.95H550.29V286.597H551.939V192.95Z" fill="#C5C6CB"/>
<path d="M683.115 287.419V285.776H550.29V287.419H683.115Z" fill="#C5C6CB"/>
<path d="M641.04 375.21V355.495H621.24V375.21H641.04Z" fill="#ACACAC"/>
<path d="M685.59 399.033V355.495H644.34V399.033H685.59Z" fill="#C5C6CB"/>
<path d="M641.04 399.033V379.318H621.24V399.033H641.04Z" fill="#ACACAC"/>
<path d="M594.84 375.21V355.495H575.04V375.21H594.84Z" fill="#ACACAC"/>
<path d="M594.84 399.033V379.318H575.04V399.033H594.84Z" fill="#ACACAC"/>
<path d="M617.94 375.21V355.495H598.14V375.21H617.94Z" fill="#ACACAC"/>
<path d="M617.94 399.033V379.318H598.14V399.033H617.94Z" fill="#ACACAC"/>
<path d="M571.74 375.21V355.495H551.94V375.21H571.74Z" fill="#ACACAC"/>
<path d="M571.74 399.033V379.318H551.94V399.033H571.74Z" fill="#ACACAC"/>
<path d="M685.59 318.961H551.94V320.604H685.59V318.961Z" fill="#C5C6CB"/>
<path d="M605.565 309.914H551.94V312.379H605.565V309.914Z" fill="#C5C6CB"/>
<path d="M678.165 332.747H551.94V334.39H678.165V332.747Z" fill="#C5C6CB"/>
<path d="M660.84 322.407H551.94V324.051H660.84V322.407Z" fill="#C5C6CB"/>
<path d="M672.39 315.514H551.94V317.157H672.39V315.514Z" fill="#C5C6CB"/>
<path d="M682.29 336.193H551.94V337.836H682.29V336.193Z" fill="#C5C6CB"/>
<path d="M677.34 325.853H551.94V327.497H677.34V325.853Z" fill="#C5C6CB"/>
<path d="M679.815 339.639H551.94V341.283H679.815V339.639Z" fill="#C5C6CB"/>
<path d="M681.465 329.3H551.94V330.943H681.465V329.3Z" fill="#C5C6CB"/>
<path d="M678.99 346.459H551.94V348.102H678.99V346.459Z" fill="#C5C6CB"/>
<defs>
<radialGradient id="paint0_radial_21_41" cx="0" cy="0" r="1" gradientUnits="userSpaceOnUse" gradientTransform="translate(282.053 68.4127) scale(283.686 282.772)">
<stop stop-color="#DAD8DB"/>
<stop offset="1" stop-color="#868686"/>
</radialGradient>
<radialGradient id="paint1_radial_21_41" cx="0" cy="0" r="1" gradientUnits="userSpaceOnUse" gradientTransform="translate(279.848 223.142) scale(366.265 364.854)">
<stop stop-color="#6E7072"/>
<stop offset="0.63" stop-color="#626566"/>
<stop offset="1" stop-color="#595C5D"/>
</radialGradient>
<radialGradient id="paint2_radial_21_41" cx="0" cy="0" r="1" gradientUnits="userSpaceOnUse" gradientTransform="translate(843.287 257.922) scale(618.366 615.891)">
<stop stop-color="white"/>
<stop offset="0.09" stop-color="white" stop-opacity="0.949"/>
<stop offset="0.25" stop-color="white" stop-opacity="0.831"/>
<stop offset="0.45" stop-color="white" stop-opacity="0.631"/>
<stop offset="0.7" stop-color="white" stop-opacity="0.361"/>
<stop offset="0.99" stop-color="white" stop-opacity="0.02"/>
<stop offset="1" stop-color="white" stop-opacity="0"/>
</radialGradient>
<linearGradient id="paint3_linear_21_41" x1="396" y1="464.711" x2="396" y2="447.374" gradientUnits="userSpaceOnUse">
<stop stop-color="#6A6C6D"/>
<stop offset="0.29" stop-color="#818484"/>
<stop offset="1" stop-color="#B7BCB9"/>
</linearGradient>
<linearGradient id="paint4_linear_21_41" x1="342.147" y1="445.975" x2="449.824" y2="445.975" gradientUnits="userSpaceOnUse">
<stop stop-color="#6A6C6D"/>
<stop offset="0.04" stop-color="#8B8F8E"/>
<stop offset="0.1" stop-color="#AEB4B0"/>
<stop offset="0.15" stop-color="#C9D1CB"/>
<stop offset="0.21" stop-color="#DCE5DF"/>
<stop offset="0.26" stop-color="#E8F2EA"/>
<stop offset="0.32" stop-color="#ECF6EE"/>
<stop offset="0.7" stop-color="#ECF6EE"/>
<stop offset="0.74" stop-color="#E4EEE7"/>
<stop offset="0.8" stop-color="#D0D8D2"/>
<stop offset="0.88" stop-color="#AEB4B0"/>
<stop offset="0.96" stop-color="#7F8382"/>
<stop offset="1" stop-color="#6A6C6D"/>
</linearGradient>
</defs>
</svg>
